<?xml version="1.0" encoding="iso-8859-1"?>
<!-- Generator: Adobe Illustrator 19.0.0, SVG Export Plug-In . SVG Version: 6.00 Build 0)  -->
<svg version="1.1" id="Capa_1" xmlns="http://www.w3.org/2000/svg" xmlns:xlink="http://www.w3.org/1999/xlink" x="0px" y="0px"
	 viewBox="0 0 64 64" style="enable-background:new 0 0 64 64;" xml:space="preserve">
<g>
	<g id="passion-love-mind-heart-mental_1_">
		<path d="M50.995,41.1L53,21C53,9.421,43.58,0,32,0S11,9.421,11.005,21.1l2,20c0.018,0.182,0.085,0.354,0.195,0.5l12,16
			c0.188,0.252,0.485,0.4,0.8,0.4h12c0.315,0,0.611-0.148,0.8-0.4l12-16C50.91,41.454,50.977,41.281,50.995,41.1z M37.5,56h-11
			L14.967,40.623L13,21c0-10.477,8.523-19,19-19s19,8.523,19.005,18.9l-1.972,19.723L37.5,56z"/>
		<path d="M0.628,62.071C0.249,62.224,0,62.591,0,63v1h2v-0.323l19.372-7.748l-0.743-1.857L0.628,62.071z"/>
		<path d="M63.372,62.071l-20-8l-0.743,1.857L62,63.677V64h2v-1C64,62.591,63.751,62.224,63.372,62.071z"/>
		<path d="M41.39,12.043c-2.53-1.898-6.134-1.384-8.033,1.147L32,15l-1.357-1.811c-1.898-2.531-5.503-3.045-8.033-1.146
			c-1.299,0.974-2.127,2.46-2.272,4.077s0.405,3.227,1.51,4.417l9.419,10.144C31.457,30.884,31.722,31,32,31
			s0.543-0.116,0.733-0.319l9.419-10.144c1.105-1.19,1.655-2.8,1.51-4.417S42.689,13.017,41.39,12.043z M31.2,19.399l0.8-1.066
			l0.8,1.066c0.232,0.31,0.267,0.701,0.094,1.048c-0.347,0.691-1.442,0.691-1.789,0C30.933,20.101,30.968,19.709,31.2,19.399z
			 M40.686,19.176L32,28.53l-8.686-9.354c-0.72-0.775-1.079-1.824-0.984-2.877c0.094-1.054,0.634-2.021,1.48-2.656
			c0.671-0.503,1.458-0.746,2.238-0.746c1.137,0,2.261,0.516,2.995,1.493l1.707,2.276L29.6,18.2
			c-0.687,0.914-0.795,2.118-0.283,3.142C29.828,22.364,30.856,23,32,23c1.144,0,2.172-0.636,2.683-1.658
			c0.512-1.023,0.403-2.228-0.283-3.142l-1.15-1.534l1.707-2.275c1.237-1.649,3.585-1.983,5.233-0.748
			c0.846,0.635,1.386,1.603,1.48,2.656C41.765,17.352,41.406,18.4,40.686,19.176z"/>
		<path d="M32.034,42.152L32,42.185l-0.034-0.032c-1.586-1.53-4.169-1.528-5.756,0C25.429,42.906,25,43.91,25,44.979
			s0.43,2.073,1.21,2.825l5.096,4.915C31.5,52.906,31.75,53,32,53s0.5-0.094,0.694-0.28l5.096-4.915
			C38.57,47.053,39,46.049,39,44.98s-0.429-2.073-1.21-2.827C36.203,40.622,33.621,40.622,32.034,42.152z M36.401,46.365L32,50.61
			l-4.401-4.245C27.212,45.993,27,45.501,27,44.979s0.212-1.015,0.599-1.388c0.411-0.396,0.95-0.594,1.49-0.594
			c0.539,0,1.079,0.198,1.489,0.594l0.728,0.702c0.388,0.373,1.001,0.373,1.389,0l0.728-0.702c0.821-0.79,2.158-0.792,2.979,0
			C36.788,43.965,37,44.457,37,44.979S36.788,45.993,36.401,46.365z"/>
		<rect x="31" y="33" width="2" height="2"/>
		<rect x="31" y="37" width="2" height="2"/>
	</g>
	<g id="Layer_1_19_">
	</g>
</g>
<g>
</g>
<g>
</g>
<g>
</g>
<g>
</g>
<g>
</g>
<g>
</g>
<g>
</g>
<g>
</g>
<g>
</g>
<g>
</g>
<g>
</g>
<g>
</g>
<g>
</g>
<g>
</g>
<g>
</g>
</svg>
